
<svg aria-hidden="true" style="position:absolute;width:0;height:0;overflow:hidden" xmlns="http://www.w3.org/2000/svg">
	<defs>
		<symbol id="icon-arrow-left" viewBox="0 0 32 32">
			<path stroke-linejoin="round" stroke-linecap="round" stroke-width="2.666"
				d="M25.334 16H6.666M16 25.334 6.666 16 16 6.666" />
		</symbol>
		<symbol id="icon-arrow-right" viewBox="0 0 32 32">
			<path stroke-linejoin="round" stroke-linecap="round" stroke-width="2.666"
				d="M6.666 16h18.668M16 25.334 25.334 16 16 6.666" />
		</symbol>
		<symbol id="icon-close" viewBox="0 0 32 32">
			<path stroke-width="2.133" d="m8.533 8.533 14.933 14.933m-14.933.001L23.466 8.534" />
		</symbol>
		<symbol id="icon-film" viewBox="0 0 32 32">
			<path stroke-linejoin="round" stroke-linecap="round" stroke-width="2.667"
				d="M26.427 2.667H5.574a2.907 2.907 0 0 0-2.907 2.907v20.853a2.907 2.907 0 0 0 2.907 2.907v0h20.853a2.907 2.907 0 0 0 2.907-2.907v0V5.574a2.907 2.907 0 0 0-2.907-2.907v0zm-17.094 0v26.667M22.667 2.667v26.667M2.667 16h26.667M2.667 9.333h6.667M2.667 22.667h6.667m13.333 0h6.667M22.667 9.333h6.667" />
		</symbol>
		<symbol id="icon-search-2" viewBox="0 0 32 32">
			<path style="" stroke-linejoin="round" stroke-linecap="round" stroke-width="2.667"
				d="M14.667 25.333c5.891 0 10.667-4.776 10.667-10.667S20.558 3.999 14.667 3.999v0C8.776 3.999 4 8.775 4 14.666s4.776 10.667 10.667 10.667v0zM28 28l-5.8-5.8" />
		</symbol>
		<symbol id="icon-Vector" viewBox="0 0 32 32">
			<path fill="#ff6b08" style="fill:var(--color3, #ff6b08)"
				d="m16 30.583-2.24-2.24C5.44 20.983 0 16.023 0 9.943c0-4.96 3.84-8.8 8.8-8.8 2.72 0 5.44 1.28 7.2 3.36 1.76-2.08 4.48-3.36 7.2-3.36 4.96 0 8.8 3.84 8.8 8.8 0 6.08-5.44 11.04-13.76 18.4L16 30.583z" />
		</symbol>
		<symbol id="right" viewBox="0 0 30 32">
			<path
				d="M0 16.096q0-0.832 0.576-1.376t1.376-0.544h20.544l-7.744-7.808q-0.608-0.576-0.608-1.408t0.608-1.344q0.544-0.608 1.344-0.608t1.408 0.608l12.48 12.48-12.48 12.512q-0.64 0.576-1.408 0.576t-1.344-0.576-0.608-1.408 0.608-1.376l7.744-7.744h-20.544q-0.8 0-1.376-0.576t-0.576-1.408z">
			</path>
		</symbol>
		<symbol id="left" viewBox="0 0 30 32">
			<path
				d="M0 15.904l12.48-12.512q0.608-0.576 1.408-0.576t1.376 0.576 0.576 1.408-0.576 1.376l-7.776 7.776h20.544q0.8 0 1.376 0.576t0.576 1.376-0.576 1.376-1.376 0.576h-20.544l7.776 7.776q0.576 0.576 0.576 1.408t-0.576 1.376-1.376 0.576-1.408-0.576z">
			</path>
		</symbol>
<symbol id="icon-arrow-left2" viewBox="0 0 32 32">
<path d="M12.586 27.414l-10-10c-0.781-0.781-0.781-2.047 0-2.828l10-10c0.781-0.781 2.047-0.781 2.828 0s0.781 2.047 0 2.828l-6.586 6.586h19.172c1.105 0 2 0.895 2 2s-0.895 2-2 2h-19.172l6.586 6.586c0.39 0.39 0.586 0.902 0.586 1.414s-0.195 1.024-0.586 1.414c-0.781 0.781-2.047 0.781-2.828 0z"></path>
</symbol>
<symbol id="icon-arrow-right2" viewBox="0 0 32 32">
<path d="M19.414 27.414l10-10c0.781-0.781 0.781-2.047 0-2.828l-10-10c-0.781-0.781-2.047-0.781-2.828 0s-0.781 2.047 0 2.828l6.586 6.586h-19.172c-1.105 0-2 0.895-2 2s0.895 2 2 2h19.172l-6.586 6.586c-0.39 0.39-0.586 0.902-0.586 1.414s0.195 1.024 0.586 1.414c0.781 0.781 2.047 0.781 2.828 0z"></path>
</symbol>
<symbol id="icon-close" viewBox="0 0 32 32"><path stroke-width="2.133" d="m8.533 8.533 14.933 14.933m-14.933.001L23.466 8.534"/></symbol><symbol id="icon-film" viewBox="0 0 32 32"><path stroke-linejoin="round" stroke-linecap="round" stroke-width="2.667" d="M26.427 2.667H5.574a2.907 2.907 0 0 0-2.907 2.907v20.853a2.907 2.907 0 0 0 2.907 2.907v0h20.853a2.907 2.907 0 0 0 2.907-2.907v0V5.574a2.907 2.907 0 0 0-2.907-2.907v0zm-17.094 0v26.667M22.667 2.667v26.667M2.667 16h26.667M2.667 9.333h6.667M2.667 22.667h6.667m13.333 0h6.667M22.667 9.333h6.667"/></symbol><symbol id="icon-search-2" viewBox="0 0 32 32"><path style="" stroke-linejoin="round" stroke-linecap="round" stroke-width="2.667" d="M14.667 25.333c5.891 0 10.667-4.776 10.667-10.667S20.558 3.999 14.667 3.999v0C8.776 3.999 4 8.775 4 14.666s4.776 10.667 10.667 10.667v0zM28 28l-5.8-5.8"/></symbol><symbol id="icon-Vector" viewBox="0 0 32 32"><path fill="#ff6b08" style="fill:var(--color3, #ff6b08)" d="m16 30.583-2.24-2.24C5.44 20.983 0 16.023 0 9.943c0-4.96 3.84-8.8 8.8-8.8 2.72 0 5.44 1.28 7.2 3.36 1.76-2.08 4.48-3.36 7.2-3.36 4.96 0 8.8 3.84 8.8 8.8 0 6.08-5.44 11.04-13.76 18.4L16 30.583z"/></symbol><symbol id="film" viewBox="0 0 32 32">
<path d="M0 4v24h32v-24h-32zM6 26h-4v-4h4v4zM6 18h-4v-4h4v4zM6 10h-4v-4h4v4zM24 26h-16v-20h16v20zM30 26h-4v-4h4v4zM30 18h-4v-4h4v4zM30 10h-4v-4h4v4zM12 10v12l8-6z"></path>
</symbol><symbol id="close" viewBox="0 0 32 32">
<path d="M32 3.223l-3.223-3.223-12.777 12.777-12.777-12.777-3.223 3.223 12.777 12.777-12.777 12.777 3.223 3.223 12.777-12.777 12.777 12.777 3.223-3.223-12.777-12.777 12.777-12.777z"></path>
</symbol>
<symbol id="youtube2" viewBox="0 0 80 32">
</symbol>
<symbol id="icon-menu-close" viewBox="0 0 32 32">
<path d="M31.439 3.166l-3.166-3.166-12.553 12.553-12.553-12.553-3.166 3.166 12.553 12.553-12.553 12.553 3.166 3.166 12.553-12.553 12.553 12.553 3.166-3.166-12.553-12.553 12.553-12.553z"></path>
</symbol>
</defs></svg>
